<svg width="188" height="105" viewBox="0 0 188 105" fill="none" xmlns="http://www.w3.org/2000/svg">
<rect width="188" height="105" fill="#E85D31"/>
<path d="M24.965 58.1224H20.3533L36.9868 31.6284H44.6049V25.6524H52.2191V39.5976L55.0254 33.0248L75.8663 33.2316L64.0447 30.4347L71.4587 18.6817H75.8702V15.0969H80.2778V22.4655L82.2834 18.8807L96.9152 18.6817L114.349 44.774L167.26 47.9609H112.748L96.1106 25.0556L62.8437 79.0344L36.9868 39.3987L24.965 58.1224Z" fill="white" stroke="#AF917D" stroke-width="0.390077" stroke-miterlimit="10"/>
<path d="M36.2449 54.2371H32.1121V58.2939H36.2449V54.2371Z" fill="white"/>
<path d="M41.0645 54.2371H36.9316V58.2939H41.0645V54.2371Z" fill="white"/>
<path d="M41.0645 49.4004H36.9316V53.6405H41.0645V49.4004Z" fill="white"/>
<path d="M36.2449 49.4004H32.1121V53.6405H36.2449V49.4004Z" fill="white"/>
<path d="M97.2801 43.6389H93.1472V47.6957H97.2801V43.6389Z" fill="white"/>
<path d="M102.1 43.6389H97.967V47.6957H102.1V43.6389Z" fill="white"/>
<path d="M102.1 38.8015H97.967V43.0416H102.1V38.8015Z" fill="white"/>
<path d="M97.2801 38.8015H93.1472V43.0416H97.2801V38.8015Z" fill="white"/>
<path d="M95.2394 68.7053C93.5854 68.7053 92.2176 68.1592 91.1358 67.067C90.0539 65.9748 89.513 64.6381 89.513 63.057C89.513 61.4759 90.0539 60.1392 91.1358 59.047C92.2176 57.9548 93.5854 57.4087 95.2394 57.4087C96.2484 57.4087 97.1741 57.6531 98.0167 58.142C98.8593 58.6205 99.5094 59.2706 99.9671 60.0924L98.9997 60.6541C98.6564 59.9884 98.1467 59.4579 97.4706 59.0626C96.7945 58.6673 96.0507 58.4697 95.2394 58.4697C93.8767 58.4697 92.7637 58.9118 91.9003 59.796C91.0369 60.6801 90.6053 61.7671 90.6053 63.057C90.6053 64.3468 91.0369 65.4339 91.9003 66.318C92.7637 67.2022 93.8767 67.6443 95.2394 67.6443C96.0507 67.6443 96.7945 67.4467 97.4706 67.0514C98.1467 66.6561 98.6564 66.1256 98.9997 65.4599L99.9671 66.006C99.5198 66.8277 98.8697 67.4831 98.0167 67.972C97.1741 68.4609 96.2484 68.7053 95.2394 68.7053ZM107.287 60.7165H108.161V68.5181H107.131V62.5109L102.481 68.5181H101.607V60.7165H102.637V66.7237L107.287 60.7165ZM115.862 60.7165H116.892V68.5181H115.862V65.1166H111.368V68.5181H110.338V60.7165H111.368V64.118H115.862V60.7165ZM124.686 60.7165H125.779L122.44 69.2358C122.138 70.0056 121.706 70.6089 121.144 71.0458C120.593 71.4931 119.974 71.6907 119.288 71.6387V70.6713C120.224 70.7753 120.936 70.2344 121.425 69.0486L121.628 68.5649L118.133 60.7165H119.225L122.159 67.2542L124.686 60.7165ZM130.354 68.7053C129.179 68.7053 128.201 68.3152 127.421 67.5351C126.64 66.7445 126.25 65.7719 126.25 64.6173C126.25 63.4627 126.64 62.4953 127.421 61.7151C128.201 60.9246 129.179 60.5293 130.354 60.5293C131.124 60.5293 131.815 60.7165 132.429 61.091C133.043 61.4551 133.49 61.9492 133.771 62.5733L132.928 63.057C132.72 62.5889 132.382 62.2196 131.914 61.9492C131.457 61.6683 130.936 61.5279 130.354 61.5279C129.491 61.5279 128.762 61.8296 128.17 62.4329C127.577 63.0258 127.28 63.7539 127.28 64.6173C127.28 65.4807 127.577 66.214 128.17 66.8173C128.762 67.4102 129.491 67.7067 130.354 67.7067C130.936 67.7067 131.457 67.5715 131.914 67.301C132.372 67.0202 132.731 66.6457 132.991 66.1776L133.849 66.6769C133.527 67.301 133.053 67.7951 132.429 68.1592C131.805 68.5233 131.113 68.7053 130.354 68.7053ZM139.54 61.9648C140.445 61.9648 141.215 62.2872 141.85 62.9322C142.495 63.5771 142.817 64.3468 142.817 65.2414C142.817 66.1464 142.495 66.9214 141.85 67.5663C141.215 68.2008 140.445 68.5181 139.54 68.5181H135.484V57.5959H141.881V58.6257H136.576V61.9648H139.54ZM139.54 67.4883C140.144 67.4883 140.659 67.2698 141.085 66.8329C141.512 66.396 141.725 65.8655 141.725 65.2414C141.725 64.6277 141.512 64.1024 141.085 63.6655C140.659 63.2182 140.144 62.9946 139.54 62.9946H136.576V67.4883H139.54ZM149.599 60.7165H150.692L147.353 69.2358C147.051 70.0056 146.619 70.6089 146.058 71.0458C145.506 71.4931 144.887 71.6907 144.201 71.6387V70.6713C145.137 70.7753 145.85 70.2344 146.338 69.0486L146.541 68.5649L143.046 60.7165H144.138L147.072 67.2542L149.599 60.7165ZM158.017 67.5195H159.109V70.6089H158.08V68.5181H151.714V70.6089H150.684V67.5195H151.636C152.166 66.8225 152.431 65.8395 152.431 64.5705V60.7165H158.017V67.5195ZM152.884 67.5195H156.987V61.7151H153.461V64.5705C153.461 65.7667 153.269 66.7497 152.884 67.5195Z" fill="white"/>
<path d="M93.077 76.7828C93.361 76.7828 93.6013 76.8796 93.7979 77.073C93.9945 77.2634 94.0928 77.4974 94.0928 77.7752C94.0928 78.0592 93.9945 78.2963 93.7979 78.4867C93.6044 78.677 93.3641 78.7722 93.077 78.7722H91.8459V75.4956H93.8119V75.9075H92.2813V76.7828H93.077ZM93.077 78.365C93.2393 78.365 93.3766 78.3088 93.4889 78.1965C93.6044 78.0841 93.6621 77.9437 93.6621 77.7752C93.6621 77.6098 93.6044 77.4709 93.4889 77.3586C93.3766 77.2462 93.2393 77.1901 93.077 77.1901H92.2813V78.365H93.077ZM96.3149 75.4956H96.7549L95.7017 77.9952C95.5831 78.276 95.4317 78.4804 95.2476 78.6084C95.0635 78.7332 94.8388 78.7878 94.5736 78.7722V78.3697C94.7546 78.3884 94.9012 78.3619 95.0136 78.2901C95.1259 78.2183 95.2195 78.095 95.2944 77.9203L95.3272 77.8454L94.2178 75.4956H94.6578L95.5285 77.3679L96.3149 75.4956ZM99.2939 78.3603H99.6449V79.3995H99.2096V78.7722H97.047V79.3995H96.6117V78.3603H96.8972C97.1001 78.1075 97.2015 77.7237 97.2015 77.2088V75.4956H99.2939V78.3603ZM97.3887 78.3603H98.8585V75.9028H97.6368V77.2182C97.6368 77.7143 97.5541 78.095 97.3887 78.3603ZM100.147 75.4956H100.583V78.7722H100.147V75.4956ZM103.158 77.073C103.308 77.1448 103.426 77.2478 103.514 77.382C103.604 77.5162 103.649 77.6706 103.649 77.8454C103.649 78.1075 103.557 78.3275 103.373 78.5054C103.189 78.6833 102.964 78.7722 102.699 78.7722H101.285V75.4956H102.596C102.852 75.4956 103.069 75.5814 103.247 75.753C103.425 75.9247 103.514 76.1369 103.514 76.3896C103.514 76.6798 103.395 76.9077 103.158 77.073ZM102.596 75.9028H101.721V76.9045H102.596C102.733 76.9045 102.849 76.8562 102.943 76.7594C103.036 76.6627 103.083 76.5441 103.083 76.4037C103.083 76.2664 103.035 76.1493 102.938 76.0526C102.844 75.9527 102.73 75.9028 102.596 75.9028ZM102.699 78.365C102.846 78.365 102.969 78.3135 103.069 78.2105C103.169 78.1075 103.219 77.9811 103.219 77.8314C103.219 77.6847 103.167 77.5599 103.064 77.4569C102.964 77.3539 102.843 77.3024 102.699 77.3024H101.721V78.365H102.699ZM104.601 78.3603H106.122V78.7722H104.165V75.4956H106.099V75.9075H104.601V76.9139H105.982V77.3211H104.601V78.3603ZM106.362 78.7722V78.379C106.577 78.4102 106.738 78.3509 106.844 78.2011C106.953 78.0482 107.008 77.7658 107.008 77.3539V75.4956H109.171V78.7722H108.735V75.9075H107.443V77.3539C107.443 77.6472 107.415 77.8938 107.359 78.0935C107.306 78.2901 107.228 78.4383 107.125 78.5382C107.025 78.638 106.913 78.7067 106.788 78.7441C106.666 78.7785 106.524 78.7878 106.362 78.7722ZM111.064 76.6658C111.366 76.6658 111.618 76.7672 111.817 76.9701C112.02 77.1729 112.122 77.4226 112.122 77.719C112.122 78.0186 112.02 78.2698 111.817 78.4726C111.618 78.6724 111.366 78.7722 111.064 78.7722H109.875V75.4956H110.31V76.6658H111.064ZM111.064 78.365C111.245 78.365 111.395 78.3041 111.513 78.1824C111.632 78.0607 111.691 77.9062 111.691 77.719C111.691 77.5349 111.632 77.382 111.513 77.2603C111.395 77.1355 111.245 77.073 111.064 77.073H110.31V78.365H111.064ZM114.663 75.4956H115.093V78.7722H114.663V77.2977H113.071V78.7722H112.636V75.4956H113.071V76.8858H114.663V75.4956ZM117.952 78.7722L117.686 78.0373H116.211L115.944 78.7722H115.481L116.703 75.4956H117.194L118.416 78.7722H117.952ZM116.361 77.6301H117.536L116.946 76.0152L116.361 77.6301ZM122.355 78.7722H121.822L120.408 77.1994V78.7722H119.973V75.4956H120.408V76.9747L121.775 75.4956H122.308L120.862 77.0871L122.355 78.7722ZM125.188 78.3369C124.861 78.6677 124.46 78.8331 123.985 78.8331C123.511 78.8331 123.11 78.6677 122.782 78.3369C122.455 78.0061 122.291 77.6051 122.291 77.1339C122.291 76.6596 122.455 76.2586 122.782 75.9309C123.11 75.6001 123.511 75.4347 123.985 75.4347C124.46 75.4347 124.861 75.6001 125.188 75.9309C125.519 76.2586 125.684 76.6596 125.684 77.1339C125.684 77.6051 125.519 78.0061 125.188 78.3369ZM123.082 78.042C123.325 78.2854 123.626 78.4071 123.985 78.4071C124.344 78.4071 124.644 78.2854 124.884 78.042C125.127 77.7955 125.249 77.4928 125.249 77.1339C125.249 76.7719 125.127 76.4692 124.884 76.2258C124.644 75.9793 124.344 75.856 123.985 75.856C123.626 75.856 123.325 75.9793 123.082 76.2258C122.842 76.4692 122.721 76.7719 122.721 77.1339C122.721 77.4928 122.842 77.7955 123.082 78.042ZM129.274 75.4956V78.7722H128.843V76.2118L127.771 77.9952H127.715L126.643 76.2164V78.7722H126.208V75.4956H126.699L127.743 77.2275L128.782 75.4956H129.274ZM132.352 75.4956V78.7722H131.917V75.9075H130.41V78.7722H129.974V75.4956H132.352ZM135.213 78.7722L134.947 78.0373H133.472L133.205 78.7722H132.742L133.964 75.4956H134.455L135.677 78.7722H135.213ZM133.622 77.6301H134.797L134.207 76.0152L133.622 77.6301ZM138.09 75.4956H138.521V78.7722H138.09V77.2977H136.499V78.7722H136.063V75.4956H136.499V76.8858H138.09V75.4956ZM139.222 75.4956H139.657V78.7722H139.222V75.4956ZM142.565 75.4956V78.7722H142.134V77.5177H141.484L140.636 78.7722H140.145L141.016 77.4896C140.791 77.4366 140.605 77.318 140.459 77.1339C140.312 76.9498 140.239 76.7423 140.239 76.5113C140.239 76.2305 140.337 75.9918 140.533 75.7952C140.733 75.5954 140.973 75.4956 141.254 75.4956H142.565ZM141.254 77.1245H142.134V75.9028H141.254C141.095 75.9028 140.958 75.9621 140.842 76.0807C140.727 76.1993 140.669 76.3428 140.669 76.5113C140.669 76.6798 140.727 76.825 140.842 76.9467C140.958 77.0652 141.095 77.1245 141.254 77.1245Z" fill="white"/>
</svg>
